<svg xmlns="http://www.w3.org/2000/svg" width="16.931" height="16.931" viewBox="0 0 16.931 16.931">
  <path id="dashboard-svgrepo-com" d="M3.941,12.406H9.584a.941.941,0,0,0,.941-.941V3.941A.941.941,0,0,0,9.584,3H3.941A.941.941,0,0,0,3,3.941v7.525A.941.941,0,0,0,3.941,12.406ZM3,18.991a.941.941,0,0,0,.941.941H9.584a.941.941,0,0,0,.941-.941V15.228a.941.941,0,0,0-.941-.941H3.941A.941.941,0,0,0,3,15.228Zm9.406,0a.941.941,0,0,0,.941.941h5.644a.941.941,0,0,0,.941-.941V12.406a.941.941,0,0,0-.941-.941H13.347a.941.941,0,0,0-.941.941Zm.941-9.406h5.644a.941.941,0,0,0,.941-.941v-4.7A.941.941,0,0,0,18.991,3H13.347a.941.941,0,0,0-.941.941v4.7A.941.941,0,0,0,13.347,9.584Z" transform="translate(-3 -3)" fill="#fff"/>
</svg>
