<svg xmlns="http://www.w3.org/2000/svg" width="18.786" height="22" viewBox="0 0 18.786 22">
  <g id="Group_3012" data-name="Group 3012" transform="translate(-651.537 -402)">
    <g id="text-documents-svgrepo-com" transform="translate(648.53 404.311)">
      <path id="Union_6" data-name="Union 6" d="M-5130.2-7340.125a.465.465,0,0,1,.465-.464h6.429a1.077,1.077,0,0,1,.764.317,1.077,1.077,0,0,1,.317.764v15.96a1.076,1.076,0,0,1-.317.764,1.075,1.075,0,0,1-.764.317h-12.276a1.083,1.083,0,0,1-.764-.317,1.078,1.078,0,0,1-.317-.764v-9.4a.464.464,0,0,1,.464-.464.465.465,0,0,1,.465.464v9.4a.146.146,0,0,0,.046.106.152.152,0,0,0,.106.046h12.276a.159.159,0,0,0,.107-.044.159.159,0,0,0,.044-.107v-15.959a.147.147,0,0,0-.046-.106.153.153,0,0,0-.107-.045h-6.428S-5130.2-7339.869-5130.2-7340.125Zm3.317,11.6a.465.465,0,0,1,.465.464.465.465,0,0,1-.465.465h-6.126a.465.465,0,0,1-.464-.465.464.464,0,0,1,.464-.464Zm0-6.591a.469.469,0,0,1,.466.47.468.468,0,0,1-.466.471h-3.019a.469.469,0,0,1-.466-.471.468.468,0,0,1,.466-.47Zm0,3.3a.465.465,0,0,1,.465.465.465.465,0,0,1-.465.464h-3.063a.465.465,0,0,1-.465-.464.465.465,0,0,1,.465-.465Z" 
      transform="translate(5144.016 7342.157)"/>
    </g>
    <path id="Union_13" data-name="Union 13" d="M-1675.7,8.879v-3.2h-3.173a.767.767,0,0,1-.673-.775c0-.338.268-.813.673-.813h3.182V.98a.662.662,0,0,1,.738-.678c.465,0,.78.235.78.635v3.2h3.172a.766.766,0,0,1,.673.775c0,.338-.268.813-.673.813h-3.18v3.11a.662.662,0,0,1-.738.677C-1675.389,9.515-1675.7,9.281-1675.7,8.879Z" transform="translate(2331.087 401.698)"/>
  </g>
</svg>
