<svg xmlns="http://www.w3.org/2000/svg" width="19.943" height="20" viewBox="0 0 19.943 20">
  <g id="edit-svgrepo-com" transform="translate(0 0)">
    <path id="Path_3999" data-name="Path 3999" d="M.733,18.928l1.49-6.859a.59.59,0,0,1,.213-.426L13.129.95a3.264,3.264,0,0,1,4.6,0l1.96,1.96a3.255,3.255,0,0,1,0,4.6L9,18.2a.8.8,0,0,1-.385.213l-6.9,1.576A.839.839,0,0,1,.733,18.928ZM18.741,6.487a2.1,2.1,0,0,0,0-2.67L16.671,1.88a2.07,2.07,0,0,0-2.618,0L3.921,11.933l1.294.193a.856.856,0,0,1,.851.851v1.4h1.4a.856.856,0,0,1,.851.851l.289,1.361ZM7.47,17.477l-.431-1.659h-1.4c-.737.07-.851-.675-.851-.851V13.559l-1.492-.265L1.961,18.76Z" transform="translate(-0.697 0)"/>
  </g>
</svg>
