<svg xmlns="http://www.w3.org/2000/svg" width="19.033" height="19.073" viewBox="0 0 19.033 19.073">
  <path id="regulatory_watch" data-name="regulatory watch" d="M-2440.51-7710.929a.507.507,0,0,1-.506-.506v-8.317a.508.508,0,0,1,.506-.506h8.309a.5.5,0,0,1,.506.506v8.317a.507.507,0,0,1-.506.506Zm-4.672-.147a.5.5,0,0,1,0-.718l.572-.574h-2.326a3.757,3.757,0,0,1-3.754-3.754v-1.7a.509.509,0,0,1,.506-.506.509.509,0,0,1,.506.506v1.7a2.743,2.743,0,0,0,2.741,2.741h2.326l-.572-.572a.5.5,0,0,1,0-.718.505.505,0,0,1,.716,0l1.438,1.439a.506.506,0,0,1,0,.716l-1.438,1.439a.512.512,0,0,1-.359.147A.505.505,0,0,1-2445.181-7711.076Zm2.988-9.743a.526.526,0,0,1-.147-.359.522.522,0,0,1,.147-.359.513.513,0,0,1,.359-.147.509.509,0,0,1,.359.147.513.513,0,0,1,.147.359.51.51,0,0,1-.147.359.509.509,0,0,1-.359.147A.513.513,0,0,1-2442.194-7720.819Zm-2.225-.359a.508.508,0,0,1,.506-.506.509.509,0,0,1,.506.506.508.508,0,0,1-.506.506A.5.5,0,0,1-2444.419-7721.178Zm-2.074,0a.508.508,0,0,1,.506-.506.508.508,0,0,1,.5.506.506.506,0,0,1-.5.506A.5.5,0,0,1-2446.492-7721.178Zm-2.08,0a.509.509,0,0,1,.506-.506.508.508,0,0,1,.506.506.507.507,0,0,1-.506.506A.506.506,0,0,1-2448.572-7721.178Zm-1.93.359a.517.517,0,0,1-.147-.359.514.514,0,0,1,.147-.359.509.509,0,0,1,.359-.147.5.5,0,0,1,.357.147.514.514,0,0,1,.147.359.51.51,0,0,1-.147.359.5.5,0,0,1-.357.147A.516.516,0,0,1-2450.5-7720.819Zm17.834-2.287v-1.7a2.744,2.744,0,0,0-2.741-2.743h-2.326l.572.574a.508.508,0,0,1,0,.718.511.511,0,0,1-.357.147.505.505,0,0,1-.359-.147l-1.437-1.439a.515.515,0,0,1-.147-.359.5.5,0,0,1,.147-.359l1.434-1.437a.5.5,0,0,1,.716,0,.506.506,0,0,1,0,.716l-.572.574h2.326a3.762,3.762,0,0,1,3.758,3.756v1.7a.508.508,0,0,1-.506.506A.507.507,0,0,1-2432.668-7723.106Zm-9.673-.147a.508.508,0,0,1,.506-.506.5.5,0,0,1,.506.506.507.507,0,0,1-.506.506A.508.508,0,0,1-2442.341-7723.253Zm-8.309,0a.507.507,0,0,1,.506-.506.506.506,0,0,1,.5.506.506.506,0,0,1-.5.506A.507.507,0,0,1-2450.65-7723.253Zm8.309-2.08a.509.509,0,0,1,.506-.506.5.5,0,0,1,.506.506.507.507,0,0,1-.506.506A.508.508,0,0,1-2442.341-7725.333Zm-8.309,0a.508.508,0,0,1,.506-.506.507.507,0,0,1,.5.506.506.506,0,0,1-.5.506A.507.507,0,0,1-2450.65-7725.333Zm8.309-2.08a.508.508,0,0,1,.506-.506.5.5,0,0,1,.506.506.506.506,0,0,1-.506.5A.507.507,0,0,1-2442.341-7727.413Zm-8.309,0a.507.507,0,0,1,.506-.506.506.506,0,0,1,.5.506.506.506,0,0,1-.5.5A.506.506,0,0,1-2450.65-7727.413Zm8.456-1.723a.518.518,0,0,1-.147-.359.522.522,0,0,1,.147-.359.531.531,0,0,1,.359-.147.52.52,0,0,1,.359.147.513.513,0,0,1,.147.359.509.509,0,0,1-.147.359.509.509,0,0,1-.359.147A.513.513,0,0,1-2442.194-7729.136Zm-2.225-.359a.508.508,0,0,1,.506-.506.509.509,0,0,1,.506.506.508.508,0,0,1-.506.506A.507.507,0,0,1-2444.419-7729.495Zm-2.074,0a.508.508,0,0,1,.506-.506.508.508,0,0,1,.5.506.506.506,0,0,1-.5.506A.5.5,0,0,1-2446.492-7729.495Zm-2.08,0a.509.509,0,0,1,.506-.506.508.508,0,0,1,.506.506.507.507,0,0,1-.506.506A.508.508,0,0,1-2448.572-7729.495Zm-1.93.359a.509.509,0,0,1-.147-.359.514.514,0,0,1,.147-.359.519.519,0,0,1,.359-.147.515.515,0,0,1,.357.147.521.521,0,0,1,.147.359.509.509,0,0,1-.147.359.5.5,0,0,1-.357.147A.516.516,0,0,1-2450.5-7729.136Z" transform="translate(2450.689 7730.001)" fill="#fff"/>
</svg>
