<svg id="Group_2790" data-name="Group 2790" xmlns="http://www.w3.org/2000/svg" width="22.112" height="15" viewBox="0 0 22.112 15">
  <g id="eye-svgrepo-com">
    <g id="Group_2789" data-name="Group 2789">
      <path id="Path_3967" data-name="Path 3967" d="M22.068,89.627a11.967,11.967,0,0,0-22.024,0,.553.553,0,0,0,0,.433,11.966,11.966,0,0,0,22.024,0A.553.553,0,0,0,22.068,89.627Zm-11.012,6.61a10.842,10.842,0,0,1-9.9-6.393,10.86,10.86,0,0,1,19.8,0A10.843,10.843,0,0,1,11.056,96.237Z" transform="translate(0 -82.344)"/>
      <path id="Path_3968" data-name="Path 3968" d="M162.428,157.825c-2.537,0-4.6,1.777-4.6,3.962s2.064,3.962,4.6,3.962,4.6-1.777,4.6-3.962S164.965,157.825,162.428,157.825Zm0,6.889a2.96,2.96,0,1,1,3.4-2.927A3.194,3.194,0,0,1,162.428,164.714Z" transform="translate(-151.372 -154.287)"/>
    </g>
  </g>
</svg>
