<svg xmlns="http://www.w3.org/2000/svg" width="19.419" height="19.689" viewBox="0 0 19.419 19.689">
  <g id="text-documents-svgrepo-com" transform="translate(-2.373)">
    <path id="Union_6" data-name="Union 6" d="M-5136.581-7322.468a1.084,1.084,0,0,1-.764-.316,1.078,1.078,0,0,1-.316-.765v-7.4a.464.464,0,0,1,.465-.463.463.463,0,0,1,.464.463v7.4a.143.143,0,0,0,.047.107.147.147,0,0,0,.1.045h13.276a.16.16,0,0,0,.108-.043.166.166,0,0,0,.044-.109v-15.958a.146.146,0,0,0-.045-.105.154.154,0,0,0-.108-.045h-6.428s-.463-.21-.463-.466a.464.464,0,0,1,.463-.465h6.43a1.08,1.08,0,0,1,.764.316,1.079,1.079,0,0,1,.317.765v15.96a1.079,1.079,0,0,1-.317.765,1.074,1.074,0,0,1-.764.316Zm3.574-5.13a.463.463,0,0,1-.465-.463.465.465,0,0,1,.465-.465h6.126a.466.466,0,0,1,.465.465.464.464,0,0,1-.465.463Zm3.063-3.293a.464.464,0,0,1-.465-.463.466.466,0,0,1,.465-.466h3.063a.466.466,0,0,1,.465.466.464.464,0,0,1-.465.463Zm-11.513-1.505a.307.307,0,0,1-.187-.273v-9.172a.345.345,0,0,1,.368-.315h8.451a.346.346,0,0,1,.37.315v9.172a.31.31,0,0,1-.188.273.415.415,0,0,1-.371,0l-4.034-2.824-4.038,2.826a.451.451,0,0,1-.188.044A.415.415,0,0,1-5141.457-7332.4Zm11.556-1.779a.468.468,0,0,1-.465-.471.468.468,0,0,1,.465-.471h3.019a.469.469,0,0,1,.466.471.468.468,0,0,1-.466.471Z" transform="translate(5144.016 7342.157)" fill="#fff"/>
  </g>
</svg>
