<svg xmlns="http://www.w3.org/2000/svg" width="18.205" height="21.901" viewBox="0 0 18.205 21.901">
  <g id="text-documents-svgrepo-com" transform="translate(-1)">
    <path id="Path_3952" data-name="Path 3952" d="M57.5,0H45.4A1.564,1.564,0,0,0,43.84,1.562v1H42.418a1.564,1.564,0,0,0-1.562,1.562V20.339A1.564,1.564,0,0,0,42.418,21.9h12.1a1.564,1.564,0,0,0,1.562-1.562v-1H57.5a1.564,1.564,0,0,0,1.562-1.562V1.562A1.564,1.564,0,0,0,57.5,0ZM54.828,20.339a.313.313,0,0,1-.312.312h-12.1a.313.313,0,0,1-.312-.312V4.121a.313.313,0,0,1,.312-.312H43.84V17.78A1.564,1.564,0,0,0,45.4,19.342h9.426v1Zm2.984-2.559a.313.313,0,0,1-.312.312H45.4a.313.313,0,0,1-.312-.312V1.562A.313.313,0,0,1,45.4,1.25H57.5a.313.313,0,0,1,.312.312V17.78Z" transform="translate(-39.856)" fill="#fff"/>
    <path id="Path_3953" data-name="Path 3953" d="M168.516,85.786h-8a.5.5,0,1,0,0,1h8a.5.5,0,1,0,0-1Z" transform="translate(-152.752 -81.858)" fill="#fff"/>
    <path id="Path_3954" data-name="Path 3954" d="M168.516,151.529h-8a.5.5,0,1,0,0,1h8a.5.5,0,1,0,0-1Z" transform="translate(-152.751 -144.406)" fill="#fff"/>
    <path id="Path_3955" data-name="Path 3955" d="M168.516,217.27h-8a.5.5,0,1,0,0,1h8a.5.5,0,1,0,0-1Z" transform="translate(-152.751 -206.953)" fill="#fff"/>
    <path id="Path_3956" data-name="Path 3956" d="M168.516,283.014h-8a.5.5,0,1,0,0,1h8a.5.5,0,1,0,0-1Z" transform="translate(-152.751 -269.504)" fill="#fff"/>
  </g>
</svg>
