<svg xmlns="http://www.w3.org/2000/svg" width="17.855" height="22.513" viewBox="0 0 17.855 22.513">
  <path id="Union_8" data-name="Union 8" d="M-2539.062-7470.435a1.552,1.552,0,0,1-1.553-1.551v-19.409a1.554,1.554,0,0,1,1.553-1.553h14.75a1.552,1.552,0,0,1,1.552,1.553v19.409a1.551,1.551,0,0,1-1.552,1.551Zm0-1.551h14.75v-19.409h-14.75Zm3.2-2.907a.96.96,0,0,1-.995-.921.961.961,0,0,1,.995-.922l8.361.081a.958.958,0,0,1,.993.921.958.958,0,0,1-.993.921Zm0-3.419a.961.961,0,0,1-.995-.921.96.96,0,0,1,.995-.921l8.361.079a.959.959,0,0,1,.993.921.958.958,0,0,1-.993.921Zm6.179-3.812-2.007-.971-2.016.967a.421.421,0,0,1-.414-.024.352.352,0,0,1-.158-.363l.395-2.056-1.626-1.448a.346.346,0,0,1-.1-.363.391.391,0,0,1,.32-.246l2.238-.3,1-1.869a.4.4,0,0,1,.355-.2.4.4,0,0,1,.354.2l1,1.873,2.24.3a.392.392,0,0,1,.339.243.348.348,0,0,1-.126.37l-1.626,1.448.395,2.055a.353.353,0,0,1-.158.363.419.419,0,0,1-.233.067A.379.379,0,0,1-2529.688-7482.124Z" transform="translate(2540.616 7492.948)" fill="#fff"/>
</svg>
