<svg id="zooming-svgrepo-com" xmlns="http://www.w3.org/2000/svg" width="16" height="16.003" viewBox="0 0 16 16.003">
  <g id="Group_2823" data-name="Group 2823" transform="translate(0 0)">
    <path id="Path_3993" data-name="Path 3993" d="M26.807,25.863,23.23,22.29a6.931,6.931,0,1,0-.944.941l3.576,3.576a.667.667,0,0,0,.944-.944Zm-4.967-4.023A5.566,5.566,0,1,1,23.472,17.9,5.534,5.534,0,0,1,21.839,21.839Z" transform="translate(-11 -11)"/>
    <path id="Path_3994" data-name="Path 3994" d="M110.875,201.9H105.2a.6.6,0,1,0,0,1.191h5.68a.6.6,0,1,0,0-1.191Z" transform="translate(-101.243 -195.605)"/>
    <path id="Path_3995" data-name="Path 3995" d="M6.275,0H.6a.6.6,0,1,0,0,1.191h5.68A.6.6,0,1,0,6.275,0Z" transform="translate(7.485 3.357) rotate(90)"/>
  </g>
</svg>
