<svg xmlns="http://www.w3.org/2000/svg" width="18.299" height="23.29" viewBox="0 0 18.299 23.29">
  <path id="bulb-48" d="M173.4,85.627V87.29h-8.5V85.627Zm-4.249-18.3a7.568,7.568,0,0,1,7.647,7.486,7.439,7.439,0,0,1-3.4,6.225l0,2.925h-8.5V81.039a7.438,7.438,0,0,1-3.4-6.225A7.568,7.568,0,0,1,169.15,67.327Zm0,1.664a5.886,5.886,0,0,0-5.948,5.823,5.8,5.8,0,0,0,2.974,5.044l.424.24v2.2h5.1V80.1l.424-.24a5.8,5.8,0,0,0,2.973-5.044,5.887,5.887,0,0,0-5.948-5.823ZM161.2,66.272l1.8,1.765-1.2,1.176L160,67.449Zm15.9,0,1.2,1.176-1.8,1.765-1.2-1.176ZM170,64v2.5h-1.7V64Z" transform="translate(-160 -64)" fill="#fff"/>
</svg>
