<svg xmlns="http://www.w3.org/2000/svg" width="18.018" height="20.904" viewBox="0 0 18.018 20.904">
  <g id="Group_3011" data-name="Group 3011" transform="translate(-726.306 -403.096)">
    <g id="text-documents-svgrepo-com" transform="translate(722.53 404.311)">
      <path id="Union_6" data-name="Union 6" d="M-5130.2-7340.125a.465.465,0,0,1,.465-.464h6.429a1.077,1.077,0,0,1,.764.317,1.077,1.077,0,0,1,.317.764v15.96a1.076,1.076,0,0,1-.317.764,1.075,1.075,0,0,1-.764.317h-12.276a1.083,1.083,0,0,1-.764-.317,1.078,1.078,0,0,1-.317-.764v-9.4a.464.464,0,0,1,.464-.464.465.465,0,0,1,.465.464v9.4a.146.146,0,0,0,.046.106.152.152,0,0,0,.106.046h12.276a.159.159,0,0,0,.107-.044.159.159,0,0,0,.044-.107v-15.959a.147.147,0,0,0-.046-.106.153.153,0,0,0-.107-.045h-6.428S-5130.2-7339.869-5130.2-7340.125Zm3.317,11.6a.465.465,0,0,1,.465.464.465.465,0,0,1-.465.465h-6.126a.465.465,0,0,1-.464-.465.464.464,0,0,1,.464-.464Zm0-6.591a.469.469,0,0,1,.466.47.468.468,0,0,1-.466.471h-3.019a.469.469,0,0,1-.466-.471.468.468,0,0,1,.466-.47Zm0,3.3a.465.465,0,0,1,.465.465.465.465,0,0,1-.465.464h-3.063a.465.465,0,0,1-.465-.464.465.465,0,0,1,.465-.465Z" transform="translate(5144.016 7342.157)"/>
    </g>
    <path id="save_1_" data-name="save (1)" d="M103.676,74.227a.387.387,0,0,1-.169-.038.286.286,0,0,1-.172-.253V65.48a.319.319,0,0,1,.341-.291h7.79a.319.319,0,0,1,.341.291v8.456a.286.286,0,0,1-.172.253.392.392,0,0,1-.342,0l-3.719-2.6-3.724,2.6A.385.385,0,0,1,103.676,74.227Zm.442-8.269v7.034l3.262-2.33a.391.391,0,0,1,.347,0l3.318,2.33V65.958Z" transform="translate(622.971 337.908)"/>
    <path id="fill_save" data-name="fill save" d="M.913,8.838V.354H8.571v8.1L4.814,5.907Z" transform="translate(725.755 403.046)"/>
  </g>
</svg>
