<svg xmlns="http://www.w3.org/2000/svg" width="22.818" height="24.544" viewBox="0 0 22.818 24.544">
  <g id="key-svgrepo-com_1_" data-name="key-svgrepo-com (1)" transform="translate(8.549 24.544) rotate(-141)">
    <path id="Path_2295" data-name="Path 2295" d="M1.611,9.389A5.5,5.5,0,0,1,9.389,1.611a5.5,5.5,0,0,1,0,7.778,5.453,5.453,0,0,1-2.378,1.4V21.163a1.512,1.512,0,0,1-3.023,0V20.82H3.123a1.512,1.512,0,0,1,0-3.023h.866v-.888H3.123a1.512,1.512,0,0,1,0-3.023h.866v-3.1A5.453,5.453,0,0,1,1.611,9.389ZM7.977,5.5A2.477,2.477,0,1,0,5.5,7.977,2.478,2.478,0,0,0,7.977,5.5Z" transform="translate(0 0)" fill="#e0dce3"/>
  </g>
</svg>
