<svg xmlns="http://www.w3.org/2000/svg" width="16.908" height="20.781" viewBox="0 0 16.908 20.781">
  <g id="safety-111" transform="translate(5 9)">
    <path id="Union_7" data-name="Union 7" d="M0,11.874V2.97L8.453,0l8.455,2.97v8.9a8.69,8.69,0,0,1-8.455,8.907A8.688,8.688,0,0,1,0,11.874Zm2.014-7.3v7.3c0,4,2.647,6.936,6.439,6.936s6.441-2.938,6.441-6.936v-7.3l-6.441-2.3ZM7.286,13.7l-.044-.05-2.849-3a1.294,1.294,0,0,1-.376-.691,1.125,1.125,0,0,1,.233-.691,1.042,1.042,0,0,1,.653-.3.88.88,0,0,1,.609.246l2.3,2.426,4.329-4.56a.734.734,0,0,1,.53-.231,1.21,1.21,0,0,1,.672.331l.063.064a.914.914,0,0,1,.173.61,1.189,1.189,0,0,1-.315.657L8.346,13.7a.724.724,0,0,1-1.06,0Z" transform="translate(-5 -9)" fill="#fff"/>
  </g>
</svg>
