<svg xmlns="http://www.w3.org/2000/svg" width="22.503" height="22.503" viewBox="0 0 22.503 22.503">
  <g id="settings-svgrepo-com_3_" data-name="settings-svgrepo-com (3)" transform="translate(3.026 1.902)">
    <g id="settings-svgrepo-com_4_" data-name="settings-svgrepo-com (4)" transform="translate(-3.026 -1.902)">
      <g id="Group_2839" data-name="Group 2839" transform="translate(0)">
        <path id="Path_4027" data-name="Path 4027" d="M21.351,8.89l-1.579-.268a8.919,8.919,0,0,0-.635-1.532l.931-1.3A1.386,1.386,0,0,0,19.918,4l-1.4-1.4a1.38,1.38,0,0,0-.982-.409,1.366,1.366,0,0,0-.8.259l-1.307.931a8.826,8.826,0,0,0-1.589-.653l-.263-1.561A1.389,1.389,0,0,0,12.2,0H10.22A1.389,1.389,0,0,0,8.847,1.162l-.273,1.6A8.7,8.7,0,0,0,7.047,3.4L5.754,2.474a1.388,1.388,0,0,0-1.791.15l-1.406,1.4a1.392,1.392,0,0,0-.15,1.791l.94,1.321a8.711,8.711,0,0,0-.625,1.537l-1.561.263A1.389,1.389,0,0,0,0,10.31v1.979a1.389,1.389,0,0,0,1.161,1.373l1.6.273A8.7,8.7,0,0,0,3.4,15.462L2.477,16.75a1.386,1.386,0,0,0,.15,1.791l1.4,1.4a1.38,1.38,0,0,0,.982.409,1.366,1.366,0,0,0,.8-.259l1.321-.94a8.893,8.893,0,0,0,1.485.611l.263,1.579A1.389,1.389,0,0,0,10.257,22.5h1.984a1.389,1.389,0,0,0,1.373-1.161l.268-1.579a8.919,8.919,0,0,0,1.532-.635l1.3.931a1.38,1.38,0,0,0,.809.259h0a1.38,1.38,0,0,0,.982-.409l1.4-1.4a1.392,1.392,0,0,0,.15-1.791l-.931-1.307a8.855,8.855,0,0,0,.635-1.532l1.579-.263A1.389,1.389,0,0,0,22.5,12.242V10.263A1.372,1.372,0,0,0,21.351,8.89Zm-.108,3.352a.122.122,0,0,1-.1.122l-1.974.329a.631.631,0,0,0-.508.465,7.525,7.525,0,0,1-.818,1.97.636.636,0,0,0,.028.691l1.161,1.636a.128.128,0,0,1-.014.16l-1.4,1.4a.119.119,0,0,1-.089.038.115.115,0,0,1-.071-.024l-1.631-1.161a.635.635,0,0,0-.691-.028,7.525,7.525,0,0,1-1.97.818.624.624,0,0,0-.465.508l-.334,1.974a.122.122,0,0,1-.122.1H10.262a.122.122,0,0,1-.122-.1l-.329-1.974a.631.631,0,0,0-.465-.508,7.814,7.814,0,0,1-1.927-.79.651.651,0,0,0-.32-.085.619.619,0,0,0-.367.118L5.086,19.072a.14.14,0,0,1-.071.024.126.126,0,0,1-.089-.038l-1.4-1.4a.127.127,0,0,1-.014-.16l1.156-1.622a.644.644,0,0,0,.028-.7,7.454,7.454,0,0,1-.827-1.965.644.644,0,0,0-.508-.465l-1.988-.338a.122.122,0,0,1-.1-.122V10.31a.122.122,0,0,1,.1-.122l1.96-.329a.636.636,0,0,0,.512-.47,7.518,7.518,0,0,1,.8-1.974.628.628,0,0,0-.033-.686L3.446,5.083a.128.128,0,0,1,.014-.16l1.4-1.4a.119.119,0,0,1,.089-.038.115.115,0,0,1,.071.024L6.642,4.664a.644.644,0,0,0,.7.028A7.454,7.454,0,0,1,9.3,3.865a.644.644,0,0,0,.465-.508l.338-1.988a.122.122,0,0,1,.122-.1h1.979a.122.122,0,0,1,.122.1l.329,1.96a.636.636,0,0,0,.47.512,7.63,7.63,0,0,1,2.017.827.636.636,0,0,0,.691-.028l1.622-1.166a.14.14,0,0,1,.071-.024.126.126,0,0,1,.089.038l1.4,1.4a.127.127,0,0,1,.014.16L17.873,6.681a.635.635,0,0,0-.028.691,7.525,7.525,0,0,1,.818,1.97.624.624,0,0,0,.508.465l1.974.334a.122.122,0,0,1,.1.122v1.979Z" transform="translate(0 -0.001)" fill="#fff"/>
        <path id="Path_4028" data-name="Path 4028" d="M141.631,136a5.531,5.531,0,1,0,5.531,5.531A5.534,5.534,0,0,0,141.631,136Zm0,9.616a4.085,4.085,0,1,1,4.085-4.085A4.088,4.088,0,0,1,141.631,145.617Z" transform="translate(-130.379 -130.28)" fill="#fff"/>
      </g>
    </g>
  </g>
</svg>
