<svg id="Group_3006" data-name="Group 3006" xmlns="http://www.w3.org/2000/svg" xmlns:xlink="http://www.w3.org/1999/xlink" width="232.883" height="51.081" viewBox="0 0 232.883 51.081">
  <defs>
    <clipPath id="clip-path">
      <rect id="Rectangle_148776" data-name="Rectangle 148776" width="232.883" height="51.081" fill="none"/>
    </clipPath>
    <clipPath id="clip-path-3">
      <rect id="Rectangle_148773" data-name="Rectangle 148773" width="122.995" height="21.514" fill="none"/>
    </clipPath>
    <clipPath id="clip-path-5">
      <rect id="Rectangle_148774" data-name="Rectangle 148774" width="230.873" height="0.476" fill="none"/>
    </clipPath>
  </defs>
  <g id="Group_3005" data-name="Group 3005" clip-path="url(#clip-path)">
    <g id="Group_2997" data-name="Group 2997" transform="translate(0 0)">
      <g id="Group_2996" data-name="Group 2996" clip-path="url(#clip-path)">
        <path id="Path_7219" data-name="Path 7219" d="M301.766,22.022q-4.877,0-7.431-2.713T291.78,11.6a11.846,11.846,0,0,1,.78-4.43,9.535,9.535,0,0,1,2.135-3.29,8.927,8.927,0,0,1,3.232-2.034A11.655,11.655,0,0,1,302,1.157a13.068,13.068,0,0,1,2.309.188,15.028,15.028,0,0,1,1.818.433,8.946,8.946,0,0,1,1.3.5q.519.26.75.4l-1.3,3.636a10.928,10.928,0,0,0-2.15-.837,10.253,10.253,0,0,0-2.785-.346,6.146,6.146,0,0,0-2.034.346,4.6,4.6,0,0,0-1.76,1.111,5.521,5.521,0,0,0-1.227,1.977,8.3,8.3,0,0,0-.462,2.943,10.511,10.511,0,0,0,.3,2.583,5.485,5.485,0,0,0,.982,2.063,4.7,4.7,0,0,0,1.775,1.371,6.31,6.31,0,0,0,2.655.505,12.075,12.075,0,0,0,1.76-.115,13.118,13.118,0,0,0,1.385-.274,7.122,7.122,0,0,0,1.068-.361q.462-.2.837-.375l1.242,3.608a10.531,10.531,0,0,1-2.684,1.039,15.651,15.651,0,0,1-4.011.462" transform="translate(-152.811 -0.606)" fill="#0f67ad"/>
        <path id="Path_7220" data-name="Path 7220" d="M339.26,10.329q1.213-2.043,2.312-4.086T343.6,2.127h4.963q-1.645,3.232-3.405,6.263t-3.723,6.089v7.648h-4.5v-7.59q-1.964-3.058-3.737-6.118t-3.42-6.291h5.224q.922,2.073,1.988,4.116t2.277,4.086" transform="translate(-172.708 -1.114)" fill="#0f67ad"/>
        <path id="Path_7221" data-name="Path 7221" d="M379.5,22.126q-.334-1.042-.718-2.141t-.765-2.188h-7.81q-.379,1.094-.76,2.193t-.709,2.136h-4.676q1.129-3.232,2.142-5.974t1.983-5.166q.97-2.425,1.91-4.6t1.955-4.257h4.267q.986,2.078,1.943,4.257t1.928,4.6q.971,2.423,1.986,5.166t2.145,5.974ZM374.1,6.658q-.151.435-.441,1.185t-.661,1.733q-.371.983-.829,2.165t-.931,2.478h5.719q-.459-1.3-.889-2.486t-.818-2.168q-.388-.983-.68-1.732T374.1,6.658" transform="translate(-190.669 -1.114)" fill="#0f67ad"/>
        <path id="Path_7222" data-name="Path 7222" d="M417.853,1.642q4.5,0,6.9,1.6a5.568,5.568,0,0,1,2.395,4.978,5.628,5.628,0,0,1-.966,3.42,6.37,6.37,0,0,1-2.785,2.064q.607.751,1.27,1.717t1.314,2.02q.649,1.053,1.255,2.193t1.125,2.237h-5.033l-1.116-1.991q-.564-1.01-1.158-1.962t-1.174-1.8q-.579-.852-1.159-1.545H416.5v7.3h-4.5V2.162a25.554,25.554,0,0,1,3.045-.4q1.572-.115,2.813-.115m.26,3.838q-.491,0-.881.029t-.736.058v5.425h1.27a7.667,7.667,0,0,0,3.636-.635,2.294,2.294,0,0,0,1.1-2.164A2.2,2.2,0,0,0,421.389,6.1a6.875,6.875,0,0,0-3.275-.621" transform="translate(-215.77 -0.86)" fill="#0f67ad"/>
        <path id="Path_7223" data-name="Path 7223" d="M459.488,22.022q-4.877,0-7.431-2.713T449.5,11.6a11.847,11.847,0,0,1,.78-4.43,9.534,9.534,0,0,1,2.135-3.29,8.927,8.927,0,0,1,3.232-2.034,11.655,11.655,0,0,1,4.069-.693,13.067,13.067,0,0,1,2.309.188,15.024,15.024,0,0,1,1.818.433,8.943,8.943,0,0,1,1.3.5q.519.26.75.4l-1.3,3.636a10.928,10.928,0,0,0-2.15-.837,10.253,10.253,0,0,0-2.785-.346,6.145,6.145,0,0,0-2.034.346,4.594,4.594,0,0,0-1.76,1.111,5.52,5.52,0,0,0-1.227,1.977,8.3,8.3,0,0,0-.461,2.943,10.508,10.508,0,0,0,.3,2.583,5.484,5.484,0,0,0,.982,2.063,4.7,4.7,0,0,0,1.775,1.371,6.31,6.31,0,0,0,2.655.505,12.076,12.076,0,0,0,1.76-.115,13.12,13.12,0,0,0,1.385-.274,7.121,7.121,0,0,0,1.068-.361q.462-.2.837-.375l1.242,3.608A10.531,10.531,0,0,1,463.5,21.56a15.651,15.651,0,0,1-4.011.462" transform="translate(-235.413 -0.606)" fill="#0f67ad"/>
        <path id="Path_7224" data-name="Path 7224" d="M7.765,91.352q-.193-.563-.4-1.113t-.4-1.127H2.944q-.193.577-.393,1.134t-.392,1.106H.358q.535-1.525,1.016-2.817t.941-2.446q.459-1.155.913-2.2t.934-2.061H5.814q.481,1.017.934,2.061t.914,2.2q.46,1.154.948,2.446t1.024,2.817ZM4.955,83.67q-.316.729-.722,1.773T3.388,87.71H6.522q-.44-1.222-.852-2.281T4.955,83.67" transform="translate(-0.187 -42.855)" fill="#0f67ad"/>
        <path id="Path_7225" data-name="Path 7225" d="M21.277,90.137a4.4,4.4,0,0,1,.248-1.491,3.538,3.538,0,0,1,.707-1.2,3.246,3.246,0,0,1,1.12-.8,3.665,3.665,0,0,1,1.484-.289,5.029,5.029,0,0,1,1.924.371L26.4,88.09a3.777,3.777,0,0,0-.653-.206,3.493,3.493,0,0,0-.776-.082,1.819,1.819,0,0,0-1.484.611,2.624,2.624,0,0,0-.509,1.725,2.716,2.716,0,0,0,.481,1.7,1.921,1.921,0,0,0,1.622.626,4.244,4.244,0,0,0,.838-.083,3.927,3.927,0,0,0,.714-.206l.234,1.374a3.472,3.472,0,0,1-.832.248,5.94,5.94,0,0,1-1.147.11,4.163,4.163,0,0,1-1.6-.282,3.025,3.025,0,0,1-1.127-.783,3.245,3.245,0,0,1-.666-1.2,4.955,4.955,0,0,1-.22-1.505" transform="translate(-11.143 -45.227)" fill="#0f67ad"/>
        <path id="Path_7226" data-name="Path 7226" d="M35.242,90.137a4.4,4.4,0,0,1,.248-1.491,3.538,3.538,0,0,1,.707-1.2,3.246,3.246,0,0,1,1.12-.8,3.665,3.665,0,0,1,1.484-.289,5.029,5.029,0,0,1,1.924.371l-.357,1.36a3.777,3.777,0,0,0-.653-.206,3.493,3.493,0,0,0-.776-.082,1.819,1.819,0,0,0-1.484.611,2.624,2.624,0,0,0-.509,1.725,2.716,2.716,0,0,0,.481,1.7,1.921,1.921,0,0,0,1.622.626,4.244,4.244,0,0,0,.838-.083,3.927,3.927,0,0,0,.714-.206l.234,1.374a3.473,3.473,0,0,1-.832.248,5.94,5.94,0,0,1-1.147.11,4.163,4.163,0,0,1-1.6-.282,3.025,3.025,0,0,1-1.127-.783,3.245,3.245,0,0,1-.666-1.2,4.955,4.955,0,0,1-.22-1.505" transform="translate(-18.457 -45.227)" fill="#0f67ad"/>
        <path id="Path_7227" data-name="Path 7227" d="M49.206,90.165a4.512,4.512,0,0,1,.282-1.664,3.486,3.486,0,0,1,.749-1.188,3.1,3.1,0,0,1,1.072-.715,3.325,3.325,0,0,1,1.237-.241,2.961,2.961,0,0,1,2.316.921,3.987,3.987,0,0,1,.831,2.749c0,.091,0,.195-.007.309s-.011.218-.02.309H50.924a1.894,1.894,0,0,0,.612,1.34,2.322,2.322,0,0,0,1.574.474,5.175,5.175,0,0,0,1.106-.11,4.557,4.557,0,0,0,.79-.234l.22,1.361a2.633,2.633,0,0,1-.378.144,5.222,5.222,0,0,1-.55.138q-.309.061-.666.1a6.213,6.213,0,0,1-.728.041,4.4,4.4,0,0,1-1.649-.282,3.054,3.054,0,0,1-1.154-.783,3.208,3.208,0,0,1-.673-1.182,4.819,4.819,0,0,1-.22-1.49m4.824-.743a2.2,2.2,0,0,0-.1-.653,1.577,1.577,0,0,0-.281-.536,1.339,1.339,0,0,0-.454-.357,1.443,1.443,0,0,0-.639-.131,1.487,1.487,0,0,0-.673.145,1.522,1.522,0,0,0-.488.378,1.72,1.72,0,0,0-.31.536,2.89,2.89,0,0,0-.151.619Z" transform="translate(-25.77 -45.227)" fill="#0f67ad"/>
        <path id="Path_7228" data-name="Path 7228" d="M69.337,90.235a4.52,4.52,0,0,1-1.23-.165,1.889,1.889,0,0,1-.776-.433,1.528,1.528,0,0,1-.405-.7,3.549,3.549,0,0,1-.117-.954V79.708l1.663-.275v8.232a2.265,2.265,0,0,0,.048.509.817.817,0,0,0,.172.35.766.766,0,0,0,.337.22,2.606,2.606,0,0,0,.542.117Z" transform="translate(-34.989 -41.601)" fill="#0f67ad"/>
        <path id="Path_7229" data-name="Path 7229" d="M74.944,90.165a4.512,4.512,0,0,1,.282-1.664,3.486,3.486,0,0,1,.749-1.188,3.1,3.1,0,0,1,1.072-.715,3.325,3.325,0,0,1,1.237-.241,2.961,2.961,0,0,1,2.316.921,3.987,3.987,0,0,1,.831,2.749c0,.091,0,.195-.007.309s-.011.218-.02.309H76.662a1.894,1.894,0,0,0,.612,1.34,2.322,2.322,0,0,0,1.574.474,5.175,5.175,0,0,0,1.106-.11,4.557,4.557,0,0,0,.79-.234l.22,1.361a2.633,2.633,0,0,1-.378.144,5.22,5.22,0,0,1-.55.138q-.309.061-.666.1a6.213,6.213,0,0,1-.728.041,4.4,4.4,0,0,1-1.649-.282,3.054,3.054,0,0,1-1.154-.783,3.208,3.208,0,0,1-.673-1.182,4.819,4.819,0,0,1-.22-1.49m4.824-.743a2.2,2.2,0,0,0-.1-.653,1.577,1.577,0,0,0-.281-.536,1.339,1.339,0,0,0-.454-.357,1.443,1.443,0,0,0-.639-.131,1.487,1.487,0,0,0-.673.145,1.522,1.522,0,0,0-.488.378,1.72,1.72,0,0,0-.31.536,2.89,2.89,0,0,0-.151.619Z" transform="translate(-39.25 -45.227)" fill="#0f67ad"/>
        <path id="Path_7230" data-name="Path 7230" d="M96.7,88.065a5.345,5.345,0,0,0-.57-.144,4.224,4.224,0,0,0-.845-.076,3.371,3.371,0,0,0-.584.055,3.567,3.567,0,0,0-.433.1v5.758H92.6V86.911a9.167,9.167,0,0,1,1.2-.337,7.5,7.5,0,0,1,1.6-.158c.111,0,.238.007.385.021s.293.032.44.055.288.05.426.082.248.062.329.09Z" transform="translate(-48.498 -45.258)" fill="#0f67ad"/>
        <path id="Path_7231" data-name="Path 7231" d="M106.409,86.358a4.074,4.074,0,0,1,1.388.206,2.224,2.224,0,0,1,.9.577,2.169,2.169,0,0,1,.481.9,4.407,4.407,0,0,1,.144,1.161v4.356q-.385.084-1.161.2a11.829,11.829,0,0,1-1.752.117,5.265,5.265,0,0,1-1.182-.124,2.473,2.473,0,0,1-.913-.4,1.878,1.878,0,0,1-.591-.714,2.472,2.472,0,0,1-.213-1.085,2.1,2.1,0,0,1,.241-1.045,1.971,1.971,0,0,1,.653-.694,2.818,2.818,0,0,1,.955-.384,5.36,5.36,0,0,1,1.134-.117,5.128,5.128,0,0,1,.577.035,5.323,5.323,0,0,1,.646.117v-.275a2.157,2.157,0,0,0-.069-.55,1.147,1.147,0,0,0-.241-.46,1.129,1.129,0,0,0-.453-.31,1.974,1.974,0,0,0-.708-.11,6.254,6.254,0,0,0-1.058.082,4.633,4.633,0,0,0-.783.192l-.206-1.347a6.562,6.562,0,0,1,.921-.22,7.167,7.167,0,0,1,1.292-.11m.138,6.2a6.2,6.2,0,0,0,1.168-.083V90.632a3.242,3.242,0,0,0-.4-.082,3.693,3.693,0,0,0-.577-.041,3.819,3.819,0,0,0-.556.041,1.738,1.738,0,0,0-.509.151.931.931,0,0,0-.364.31.864.864,0,0,0-.137.5.878.878,0,0,0,.372.817,1.909,1.909,0,0,0,1,.227" transform="translate(-54.21 -45.227)" fill="#0f67ad"/>
        <path id="Path_7232" data-name="Path 7232" d="M120.158,82.45l1.663-.275v2.171h2.556v1.388h-2.556v2.927A2.13,2.13,0,0,0,122.1,89.9a1.088,1.088,0,0,0,.934.371,3.037,3.037,0,0,0,.8-.1,5.492,5.492,0,0,0,.557-.179l.275,1.319a6.207,6.207,0,0,1-.756.255,4.128,4.128,0,0,1-1.1.131,3.472,3.472,0,0,1-1.285-.207,1.891,1.891,0,0,1-.818-.6,2.357,2.357,0,0,1-.426-.948,5.859,5.859,0,0,1-.124-1.271Z" transform="translate(-62.929 -43.037)" fill="#0f67ad"/>
        <path id="Path_7233" data-name="Path 7233" d="M131.642,90.165a4.512,4.512,0,0,1,.282-1.664,3.479,3.479,0,0,1,.749-1.188,3.1,3.1,0,0,1,1.072-.715,3.325,3.325,0,0,1,1.237-.241,2.96,2.96,0,0,1,2.315.921,3.984,3.984,0,0,1,.832,2.749c0,.091,0,.195-.007.309s-.012.218-.02.309H133.36a1.894,1.894,0,0,0,.612,1.34,2.321,2.321,0,0,0,1.573.474,5.173,5.173,0,0,0,1.107-.11,4.564,4.564,0,0,0,.79-.234l.22,1.361a2.656,2.656,0,0,1-.378.144,5.254,5.254,0,0,1-.55.138q-.309.061-.666.1a6.213,6.213,0,0,1-.728.041,4.4,4.4,0,0,1-1.649-.282,3.055,3.055,0,0,1-1.155-.783,3.208,3.208,0,0,1-.673-1.182,4.819,4.819,0,0,1-.22-1.49m4.824-.743a2.18,2.18,0,0,0-.1-.653,1.57,1.57,0,0,0-.282-.536,1.338,1.338,0,0,0-.453-.357,1.444,1.444,0,0,0-.639-.131,1.485,1.485,0,0,0-.673.145,1.522,1.522,0,0,0-.488.378,1.72,1.72,0,0,0-.31.536,2.892,2.892,0,0,0-.151.619Z" transform="translate(-68.944 -45.227)" fill="#0f67ad"/>
        <path id="Path_7234" data-name="Path 7234" d="M154.936,89.877a9.821,9.821,0,0,1-1.244.275,9.657,9.657,0,0,1-1.573.124,4.2,4.2,0,0,1-1.526-.261,3.172,3.172,0,0,1-1.148-.749,3.292,3.292,0,0,1-.728-1.182,4.5,4.5,0,0,1-.254-1.559,5.258,5.258,0,0,1,.213-1.546,3.374,3.374,0,0,1,.626-1.189,2.784,2.784,0,0,1,1-.763,3.263,3.263,0,0,1,1.361-.268,3.126,3.126,0,0,1,.921.123,4.179,4.179,0,0,1,.687.275v-3.45l1.663-.275Zm-4.769-3.394a2.608,2.608,0,0,0,.522,1.725,1.776,1.776,0,0,0,1.443.626,5.743,5.743,0,0,0,.681-.035,4.546,4.546,0,0,0,.46-.076V84.6a2.58,2.58,0,0,0-.584-.282,2.283,2.283,0,0,0-.777-.131,1.487,1.487,0,0,0-1.326.618,2.949,2.949,0,0,0-.419,1.677" transform="translate(-77.753 -41.601)" fill="#0f67ad"/>
        <path id="Path_7235" data-name="Path 7235" d="M176.71,81.627a5.525,5.525,0,0,1,3.154.756,2.849,2.849,0,0,1-.817,4.934q.26.316.591.769t.673.983q.343.529.66,1.086t.563,1.093H179.6q-.261-.5-.563-1t-.612-.976q-.309-.474-.612-.893t-.563-.749q-.192.014-.33.014h-1.1v3.6h-1.731V81.861a9.2,9.2,0,0,1,1.347-.186q.714-.048,1.278-.048m.124,1.5q-.55,0-1.017.041v3.078h.756a7.892,7.892,0,0,0,1.113-.069,2.334,2.334,0,0,0,.8-.247,1.207,1.207,0,0,0,.488-.481,1.6,1.6,0,0,0,.165-.77,1.54,1.54,0,0,0-.165-.743,1.231,1.231,0,0,0-.474-.481,2.257,2.257,0,0,0-.735-.254,5.4,5.4,0,0,0-.934-.076" transform="translate(-91.172 -42.75)" fill="#0f67ad"/>
        <path id="Path_7236" data-name="Path 7236" d="M191.888,90.165a4.512,4.512,0,0,1,.282-1.664,3.479,3.479,0,0,1,.749-1.188,3.1,3.1,0,0,1,1.072-.715,3.325,3.325,0,0,1,1.237-.241,2.96,2.96,0,0,1,2.315.921,3.984,3.984,0,0,1,.832,2.749c0,.091,0,.195-.007.309s-.012.218-.02.309h-4.741a1.894,1.894,0,0,0,.612,1.34,2.322,2.322,0,0,0,1.573.474,5.173,5.173,0,0,0,1.107-.11,4.564,4.564,0,0,0,.79-.234l.22,1.361a2.656,2.656,0,0,1-.378.144,5.25,5.25,0,0,1-.55.138q-.309.061-.666.1a6.213,6.213,0,0,1-.728.041,4.4,4.4,0,0,1-1.649-.282,3.055,3.055,0,0,1-1.155-.783,3.208,3.208,0,0,1-.673-1.182,4.819,4.819,0,0,1-.22-1.49m4.824-.743a2.18,2.18,0,0,0-.1-.653,1.57,1.57,0,0,0-.282-.536,1.337,1.337,0,0,0-.453-.357,1.444,1.444,0,0,0-.639-.131,1.485,1.485,0,0,0-.673.145,1.522,1.522,0,0,0-.488.378,1.72,1.72,0,0,0-.31.536,2.89,2.89,0,0,0-.151.619Z" transform="translate(-100.496 -45.227)" fill="#0f67ad"/>
        <path id="Path_7237" data-name="Path 7237" d="M215.045,93.026a3.256,3.256,0,0,1-.873,2.515,3.863,3.863,0,0,1-2.674.8,7.4,7.4,0,0,1-1.285-.11,7.166,7.166,0,0,1-1.134-.289l.3-1.415a5.167,5.167,0,0,0,.969.288,5.911,5.911,0,0,0,1.174.11,2.018,2.018,0,0,0,1.43-.412,1.629,1.629,0,0,0,.426-1.223v-.274a4.327,4.327,0,0,1-.653.247,3.18,3.18,0,0,1-.927.123,3.467,3.467,0,0,1-1.257-.22,2.628,2.628,0,0,1-.975-.646,2.94,2.94,0,0,1-.633-1.065,4.406,4.406,0,0,1-.227-1.477,4.191,4.191,0,0,1,.24-1.443,3.1,3.1,0,0,1,.7-1.127,3.206,3.206,0,0,1,1.12-.728,4.049,4.049,0,0,1,1.5-.261,9.2,9.2,0,0,1,1.539.124q.728.124,1.237.261Zm-4.631-3.051a2.193,2.193,0,0,0,.461,1.546,1.557,1.557,0,0,0,1.188.488,2.485,2.485,0,0,0,.749-.111,2.121,2.121,0,0,0,.571-.261V87.914c-.119-.028-.266-.052-.44-.076a5.225,5.225,0,0,0-.659-.034,1.676,1.676,0,0,0-1.388.6,2.432,2.432,0,0,0-.481,1.574" transform="translate(-109.306 -45.258)" fill="#0f67ad"/>
        <path id="Path_7238" data-name="Path 7238" d="M232.606,93.7q-.481.124-1.25.254a10.127,10.127,0,0,1-1.691.131,3.731,3.731,0,0,1-1.45-.248,2.335,2.335,0,0,1-.934-.687,2.7,2.7,0,0,1-.5-1.051,5.569,5.569,0,0,1-.151-1.34V86.733h1.663V90.5a3.039,3.039,0,0,0,.337,1.649,1.317,1.317,0,0,0,1.175.494c.2,0,.414-.009.639-.027a3.324,3.324,0,0,0,.5-.069V86.733h1.663Z" transform="translate(-118.69 -45.424)" fill="#0f67ad"/>
        <path id="Path_7239" data-name="Path 7239" d="M246.439,90.235a4.519,4.519,0,0,1-1.23-.165,1.886,1.886,0,0,1-.776-.433,1.528,1.528,0,0,1-.405-.7,3.547,3.547,0,0,1-.117-.954V79.708l1.663-.275v8.232a2.3,2.3,0,0,0,.048.509.817.817,0,0,0,.172.35.763.763,0,0,0,.337.22,2.592,2.592,0,0,0,.542.117Z" transform="translate(-127.741 -41.601)" fill="#0f67ad"/>
        <path id="Path_7240" data-name="Path 7240" d="M254.717,86.358a4.074,4.074,0,0,1,1.388.206,2.224,2.224,0,0,1,.9.577,2.169,2.169,0,0,1,.481.9,4.407,4.407,0,0,1,.144,1.161v4.356q-.385.084-1.161.2a11.829,11.829,0,0,1-1.752.117,5.264,5.264,0,0,1-1.182-.124,2.473,2.473,0,0,1-.914-.4,1.878,1.878,0,0,1-.591-.714,2.472,2.472,0,0,1-.213-1.085,2.1,2.1,0,0,1,.241-1.045,1.971,1.971,0,0,1,.652-.694,2.818,2.818,0,0,1,.955-.384,5.36,5.36,0,0,1,1.134-.117,5.128,5.128,0,0,1,.577.035,5.323,5.323,0,0,1,.646.117v-.275a2.159,2.159,0,0,0-.069-.55,1.148,1.148,0,0,0-.241-.46,1.129,1.129,0,0,0-.453-.31,1.974,1.974,0,0,0-.708-.11,6.253,6.253,0,0,0-1.058.082,4.633,4.633,0,0,0-.784.192l-.206-1.347a6.562,6.562,0,0,1,.921-.22,7.167,7.167,0,0,1,1.292-.11m.138,6.2a6.2,6.2,0,0,0,1.168-.083V90.632a3.241,3.241,0,0,0-.4-.082,3.693,3.693,0,0,0-.577-.041,3.819,3.819,0,0,0-.556.041,1.738,1.738,0,0,0-.509.151.931.931,0,0,0-.364.31.864.864,0,0,0-.137.5.878.878,0,0,0,.371.817,1.909,1.909,0,0,0,1,.227" transform="translate(-131.882 -45.227)" fill="#0f67ad"/>
        <path id="Path_7241" data-name="Path 7241" d="M268.465,82.45l1.663-.275v2.171h2.556v1.388h-2.556v2.927A2.13,2.13,0,0,0,270.4,89.9a1.088,1.088,0,0,0,.934.371,3.037,3.037,0,0,0,.8-.1,5.489,5.489,0,0,0,.557-.179l.275,1.319a6.206,6.206,0,0,1-.756.255,4.128,4.128,0,0,1-1.1.131,3.472,3.472,0,0,1-1.285-.207,1.892,1.892,0,0,1-.818-.6,2.357,2.357,0,0,1-.426-.948,5.858,5.858,0,0,1-.124-1.271Z" transform="translate(-140.601 -43.037)" fill="#0f67ad"/>
        <path id="Path_7242" data-name="Path 7242" d="M286.761,90.124a4.659,4.659,0,0,1-.247,1.553,3.447,3.447,0,0,1-.7,1.2,3.16,3.16,0,0,1-1.093.77,3.536,3.536,0,0,1-1.409.275,3.48,3.48,0,0,1-1.4-.275,3.171,3.171,0,0,1-1.086-.77,3.528,3.528,0,0,1-.707-1.2,4.528,4.528,0,0,1-.254-1.553,4.468,4.468,0,0,1,.254-1.546,3.465,3.465,0,0,1,.714-1.189,3.153,3.153,0,0,1,1.093-.763,3.521,3.521,0,0,1,1.388-.268,3.573,3.573,0,0,1,1.395.268,3.076,3.076,0,0,1,1.093.763,3.543,3.543,0,0,1,.708,1.189,4.479,4.479,0,0,1,.254,1.546m-1.7,0a2.8,2.8,0,0,0-.461-1.7,1.632,1.632,0,0,0-2.57,0,2.8,2.8,0,0,0-.461,1.7,2.858,2.858,0,0,0,.461,1.717,1.621,1.621,0,0,0,2.57,0,2.858,2.858,0,0,0,.461-1.717" transform="translate(-146.57 -45.228)" fill="#0f67ad"/>
        <path id="Path_7243" data-name="Path 7243" d="M302.4,88.065a5.375,5.375,0,0,0-.57-.144,4.226,4.226,0,0,0-.845-.076,3.38,3.38,0,0,0-.584.055,3.556,3.556,0,0,0-.433.1v5.758H298.3V86.911a9.2,9.2,0,0,1,1.2-.337,7.5,7.5,0,0,1,1.6-.158c.11,0,.238.007.385.021s.293.032.44.055.289.05.426.082.248.062.33.09Z" transform="translate(-156.226 -45.258)" fill="#0f67ad"/>
        <path id="Path_7244" data-name="Path 7244" d="M315.483,86.733a52.345,52.345,0,0,1-2.579,7.421,7.475,7.475,0,0,1-.564,1.058,3.129,3.129,0,0,1-.646.728,2.306,2.306,0,0,1-.8.419,3.826,3.826,0,0,1-1.781.048,2.579,2.579,0,0,1-.571-.179l.3-1.333a2.718,2.718,0,0,0,.981.192,1.526,1.526,0,0,0,1.014-.309,2.537,2.537,0,0,0,.642-.955q-.787-1.512-1.512-3.3a36.183,36.183,0,0,1-1.29-3.793h1.772q.139.578.338,1.251t.435,1.367q.235.694.5,1.381t.524,1.278q.438-1.223.821-2.6t.7-2.673Z" transform="translate(-161.59 -45.424)" fill="#0f67ad"/>
        <path id="Path_7245" data-name="Path 7245" d="M337.2,91.316a5.292,5.292,0,0,1-1.924-.33,3.8,3.8,0,0,1-1.443-.969,4.341,4.341,0,0,1-.907-1.559,6.5,6.5,0,0,1-.316-2.117,5.723,5.723,0,0,1,.364-2.117,4.582,4.582,0,0,1,1-1.559,4.191,4.191,0,0,1,1.484-.969,5.015,5.015,0,0,1,1.828-.33,5.889,5.889,0,0,1,1.072.09,7.711,7.711,0,0,1,.839.2,3.414,3.414,0,0,1,.591.234c.156.082.265.142.33.179l-.508,1.416a4.04,4.04,0,0,0-.942-.392,4.557,4.557,0,0,0-1.326-.185,3.1,3.1,0,0,0-1.154.213,2.5,2.5,0,0,0-.927.639,2.972,2.972,0,0,0-.612,1.072,4.645,4.645,0,0,0-.22,1.5,5.27,5.27,0,0,0,.172,1.388,3.069,3.069,0,0,0,.529,1.093,2.4,2.4,0,0,0,.907.714,3.113,3.113,0,0,0,1.319.255,5,5,0,0,0,1.5-.186,6.03,6.03,0,0,0,.894-.35l.467,1.415a2.354,2.354,0,0,1-.446.22,6.4,6.4,0,0,1-.667.213,6.607,6.607,0,0,1-.865.165,8.062,8.062,0,0,1-1.031.062" transform="translate(-174.192 -42.614)" fill="#0f67ad"/>
        <path id="Path_7246" data-name="Path 7246" d="M357.624,90.124a4.659,4.659,0,0,1-.247,1.553,3.447,3.447,0,0,1-.7,1.2,3.159,3.159,0,0,1-1.093.77,3.536,3.536,0,0,1-1.409.275,3.479,3.479,0,0,1-1.4-.275,3.171,3.171,0,0,1-1.086-.77,3.527,3.527,0,0,1-.707-1.2,4.529,4.529,0,0,1-.254-1.553,4.468,4.468,0,0,1,.254-1.546,3.465,3.465,0,0,1,.714-1.189,3.153,3.153,0,0,1,1.093-.763,3.521,3.521,0,0,1,1.388-.268,3.573,3.573,0,0,1,1.4.268,3.075,3.075,0,0,1,1.093.763,3.543,3.543,0,0,1,.708,1.189,4.48,4.48,0,0,1,.254,1.546m-1.7,0a2.8,2.8,0,0,0-.461-1.7,1.632,1.632,0,0,0-2.569,0,2.8,2.8,0,0,0-.461,1.7,2.858,2.858,0,0,0,.461,1.717,1.621,1.621,0,0,0,2.569,0,2.858,2.858,0,0,0,.461-1.717" transform="translate(-183.682 -45.228)" fill="#0f67ad"/>
        <path id="Path_7247" data-name="Path 7247" d="M373.259,89.976a3.5,3.5,0,0,0-.282-1.628,1.1,1.1,0,0,0-1.051-.5,4.972,4.972,0,0,0-.6.041q-.33.041-.495.069v5.8h-1.663V86.8a11.184,11.184,0,0,1,1.258-.261,10.434,10.434,0,0,1,1.642-.124,3.261,3.261,0,0,1,1.216.193,2.346,2.346,0,0,1,.79.508,3.313,3.313,0,0,1,.385-.233,4.021,4.021,0,0,1,.522-.227,4.944,4.944,0,0,1,.612-.171,3.13,3.13,0,0,1,.652-.069,3.433,3.433,0,0,1,1.381.241,2.034,2.034,0,0,1,.852.673,2.621,2.621,0,0,1,.426,1.045,7.167,7.167,0,0,1,.117,1.339v4.041h-1.663V89.976a3.581,3.581,0,0,0-.275-1.628,1.1,1.1,0,0,0-1.058-.5,2.18,2.18,0,0,0-.756.131,2.444,2.444,0,0,0-.536.254,3.641,3.641,0,0,1,.151.728,7.718,7.718,0,0,1,.041.825v3.972h-1.663Z" transform="translate(-193.338 -45.258)" fill="#0f67ad"/>
        <path id="Path_7248" data-name="Path 7248" d="M400.941,90.168a5.092,5.092,0,0,1-.213,1.512,3.531,3.531,0,0,1-.611,1.182,2.72,2.72,0,0,1-1,.77,3.2,3.2,0,0,1-1.354.275,3.343,3.343,0,0,1-.934-.124,3.469,3.469,0,0,1-.7-.275V96.3h-1.663V86.8q.509-.137,1.251-.261a9.526,9.526,0,0,1,1.566-.124,4.2,4.2,0,0,1,1.526.261,3.183,3.183,0,0,1,1.148.749,3.3,3.3,0,0,1,.728,1.182,4.521,4.521,0,0,1,.254,1.559m-1.7.028a2.679,2.679,0,0,0-.5-1.732,1.959,1.959,0,0,0-1.615-.619c-.156,0-.318.007-.488.02a2.69,2.69,0,0,0-.5.09v4.109a2.561,2.561,0,0,0,.584.282,2.292,2.292,0,0,0,.776.13,1.488,1.488,0,0,0,1.326-.618,2.92,2.92,0,0,0,.42-1.663" transform="translate(-206.591 -45.258)" fill="#0f67ad"/>
        <path id="Path_7249" data-name="Path 7249" d="M414.481,90.235a4.519,4.519,0,0,1-1.23-.165,1.886,1.886,0,0,1-.776-.433,1.528,1.528,0,0,1-.405-.7,3.548,3.548,0,0,1-.117-.954V79.708l1.663-.275v8.232a2.3,2.3,0,0,0,.048.509.817.817,0,0,0,.172.35.763.763,0,0,0,.337.22,2.592,2.592,0,0,0,.542.117Z" transform="translate(-215.748 -41.601)" fill="#0f67ad"/>
        <path id="Path_7250" data-name="Path 7250" d="M422.57,81.186a.953.953,0,0,1-.3.742,1.026,1.026,0,0,1-.715.275,1.041,1.041,0,0,1-.728-.275.953.953,0,0,1-.3-.742.971.971,0,0,1,.3-.756,1.045,1.045,0,0,1,.728-.275,1.03,1.03,0,0,1,.715.275.971.971,0,0,1,.3.756m-.179,9.29h-1.663V83.288h1.663Z" transform="translate(-220.236 -41.979)" fill="#0f67ad"/>
        <path id="Path_7251" data-name="Path 7251" d="M431.068,86.358a4.075,4.075,0,0,1,1.388.206,2.224,2.224,0,0,1,.9.577,2.169,2.169,0,0,1,.481.9,4.408,4.408,0,0,1,.144,1.161v4.356q-.385.084-1.161.2a11.829,11.829,0,0,1-1.752.117,5.265,5.265,0,0,1-1.182-.124,2.472,2.472,0,0,1-.914-.4,1.878,1.878,0,0,1-.591-.714,2.472,2.472,0,0,1-.213-1.085,2.1,2.1,0,0,1,.24-1.045,1.971,1.971,0,0,1,.653-.694,2.818,2.818,0,0,1,.955-.384,5.36,5.36,0,0,1,1.134-.117,5.127,5.127,0,0,1,.577.035,5.323,5.323,0,0,1,.646.117v-.275a2.158,2.158,0,0,0-.069-.55,1.147,1.147,0,0,0-.241-.46,1.129,1.129,0,0,0-.453-.31,1.975,1.975,0,0,0-.708-.11,6.254,6.254,0,0,0-1.058.082,4.633,4.633,0,0,0-.783.192l-.206-1.347a6.563,6.563,0,0,1,.921-.22,7.168,7.168,0,0,1,1.292-.11m.138,6.2a6.2,6.2,0,0,0,1.168-.083V90.632a3.243,3.243,0,0,0-.4-.082,3.693,3.693,0,0,0-.577-.041,3.819,3.819,0,0,0-.556.041,1.738,1.738,0,0,0-.509.151.931.931,0,0,0-.364.31.864.864,0,0,0-.137.5.878.878,0,0,0,.371.817,1.909,1.909,0,0,0,1,.227" transform="translate(-224.24 -45.227)" fill="#0f67ad"/>
        <path id="Path_7252" data-name="Path 7252" d="M444.99,86.8a11.24,11.24,0,0,1,1.251-.261,10.786,10.786,0,0,1,1.7-.124,3.925,3.925,0,0,1,1.471.241,2.3,2.3,0,0,1,.942.673,2.585,2.585,0,0,1,.495,1.045A5.86,5.86,0,0,1,451,89.714v4.041h-1.663V89.976a5.491,5.491,0,0,0-.076-.983,1.73,1.73,0,0,0-.248-.66.988.988,0,0,0-.467-.371,1.964,1.964,0,0,0-.722-.117,5.606,5.606,0,0,0-.66.041c-.229.028-.4.05-.509.069v5.8H444.99Z" transform="translate(-233.05 -45.258)" fill="#0f67ad"/>
        <path id="Path_7253" data-name="Path 7253" d="M461.378,90.137a4.4,4.4,0,0,1,.248-1.491,3.532,3.532,0,0,1,.708-1.2,3.234,3.234,0,0,1,1.12-.8,3.666,3.666,0,0,1,1.485-.289,5.028,5.028,0,0,1,1.924.371l-.357,1.36a3.8,3.8,0,0,0-.652-.206,3.5,3.5,0,0,0-.777-.082,1.819,1.819,0,0,0-1.484.611,2.624,2.624,0,0,0-.509,1.725,2.713,2.713,0,0,0,.481,1.7,1.921,1.921,0,0,0,1.622.626,4.244,4.244,0,0,0,.838-.083,3.927,3.927,0,0,0,.714-.206l.234,1.374a3.479,3.479,0,0,1-.832.248,5.94,5.94,0,0,1-1.147.11,4.158,4.158,0,0,1-1.6-.282,3.022,3.022,0,0,1-1.127-.783,3.245,3.245,0,0,1-.666-1.2,4.955,4.955,0,0,1-.22-1.505" transform="translate(-241.633 -45.227)" fill="#0f67ad"/>
        <path id="Path_7254" data-name="Path 7254" d="M475.343,90.165a4.512,4.512,0,0,1,.282-1.664,3.478,3.478,0,0,1,.749-1.188,3.1,3.1,0,0,1,1.072-.715,3.325,3.325,0,0,1,1.237-.241,2.96,2.96,0,0,1,2.315.921,3.984,3.984,0,0,1,.832,2.749c0,.091,0,.195-.007.309s-.012.218-.02.309h-4.741a1.894,1.894,0,0,0,.612,1.34,2.322,2.322,0,0,0,1.573.474,5.173,5.173,0,0,0,1.107-.11,4.564,4.564,0,0,0,.79-.234l.22,1.361a2.658,2.658,0,0,1-.378.144,5.251,5.251,0,0,1-.55.138q-.309.061-.666.1a6.213,6.213,0,0,1-.728.041,4.4,4.4,0,0,1-1.649-.282,3.055,3.055,0,0,1-1.154-.783,3.208,3.208,0,0,1-.673-1.182,4.82,4.82,0,0,1-.22-1.49m4.824-.743a2.18,2.18,0,0,0-.1-.653,1.57,1.57,0,0,0-.282-.536,1.338,1.338,0,0,0-.453-.357,1.443,1.443,0,0,0-.639-.131,1.485,1.485,0,0,0-.673.145,1.522,1.522,0,0,0-.488.378,1.719,1.719,0,0,0-.31.536,2.888,2.888,0,0,0-.151.619Z" transform="translate(-248.947 -45.227)" fill="#0f67ad"/>
      </g>
    </g>
    <g id="Group_2999" data-name="Group 2999" transform="translate(0.101 0.001)">
      <g id="Group_2998" data-name="Group 2998" clip-path="url(#clip-path-3)">
        <path id="Path_7255" data-name="Path 7255" d="M10.887,17.1a6.34,6.34,0,1,1,0-12.68,6.7,6.7,0,0,1,5.36,2.669l3.246-3.04A11.063,11.063,0,0,0,10.887,0a10.758,10.758,0,0,0-.258,21.514,11.1,11.1,0,0,0,9.008-4.245l-3.271-2.982A6.775,6.775,0,0,1,10.887,17.1" transform="translate(-0.102 -0.001)" fill="#53565a"/>
        <path id="Path_7256" data-name="Path 7256" d="M57.348,9.232l-5.389-8.09H46.767l8.347,12.047v8.4h4.418V13.158l8.32-12.019H62.745Z" transform="translate(-24.594 -0.597)" fill="#53565a"/>
        <rect id="Rectangle_148772" data-name="Rectangle 148772" width="4.419" height="20.451" transform="translate(47.557 0.546)" fill="#53565a"/>
        <path id="Path_7257" data-name="Path 7257" d="M184.41,14.168,174.686,1.144h-4.215V21.6h4.33V8.174L184.812,21.6h3.929V1.146H184.41Z" transform="translate(-89.381 -0.6)" fill="#53565a"/>
        <path id="Path_7258" data-name="Path 7258" d="M220.878,1.148V5.329h6.734V21.6h4.418V5.329h6.734V1.148Z" transform="translate(-115.78 -0.602)" fill="#53565a"/>
        <path id="Path_7259" data-name="Path 7259" d="M125.658,21.6h14.887V17.41H129.988V5.329h10.557V1.148H125.658Z" transform="translate(-65.911 -0.602)" fill="#53565a"/>
        <path id="Path_7260" data-name="Path 7260" d="M141.259,19.311a2.886,2.886,0,1,0,2.9-2.868h-.037a2.9,2.9,0,0,0-2.867,2.868" transform="translate(-74.082 -8.612)" fill="#53565a"/>
      </g>
    </g>
    <g id="Group_3004" data-name="Group 3004" transform="translate(0 0)">
      <g id="Group_3003" data-name="Group 3003" clip-path="url(#clip-path)">
        <g id="Group_3002" data-name="Group 3002" transform="translate(0.789 31.08)" opacity="0.4" style="mix-blend-mode: normal;isolation: isolate">
          <g id="Group_3001" data-name="Group 3001">
            <g id="Group_3000" data-name="Group 3000" clip-path="url(#clip-path-5)">
              <line id="Line_16" data-name="Line 16" x2="230.873" transform="translate(0 0.238)" fill="none" stroke="#686d70" stroke-width="1"/>
            </g>
          </g>
        </g>
      </g>
    </g>
  </g>
</svg>
